<?xml version="1.0" encoding="UTF-8"?>
<svg id="Layer_2" data-name="Layer 2" xmlns="http://www.w3.org/2000/svg" viewBox="0 0 426.28 139.76">
  <defs>
    <style>
      .cls-1 {
        fill: #4e93cf;
      }

      .cls-1, .cls-2 {
        stroke-width: 0px;
      }

      .cls-2 {
        fill: #004f80;
      }
    </style>
  </defs>
  <g id="Layer_1-2" data-name="Layer 1">
    <g>
      <g>
        <path class="cls-2" d="M60.78,130.77h-7.16l-2.76-7.64h-12.71l-2.72,7.64h-7.16l12.39-33.46h7.72l12.39,33.46ZM40.43,116.69h8.16l-4.08-11.39-4.08,11.39Z"/>
        <path class="cls-2" d="M69.77,106.82c.45-.08,1.07-.17,1.86-.26.79-.09,1.5-.14,2.14-.14,1.47,0,2.86.14,4.18.42,1.32.28,2.48.79,3.48,1.54,1,.75,1.79,1.75,2.38,3.02.59,1.27.88,2.86.88,4.78v14.59h-6.64v-12.99c0-1.89-.37-3.17-1.12-3.84-.75-.67-1.88-1-3.4-1-.59,0-1.23.04-1.94.12-.71.08-1.31.16-1.82.24v17.47h-6.64v-36.91h6.64v12.97Z"/>
        <path class="cls-2" d="M117.19,117.73c0-1.92-.31-3.2-.92-3.84s-1.61-.96-3-.96c-.59,0-1.24.07-1.96.22-.72.15-1.32.34-1.8.58.24.45.37.71.38.76s.05.29.1.7c.05.41.09.83.12,1.26.03.43.04.8.04,1.12v13.19h-6.64v-13.03c0-.99-.08-1.79-.24-2.42s-.39-1.11-.7-1.44c-.31-.33-.71-.57-1.22-.72-.51-.15-1.13-.22-1.88-.22-.59,0-1.13.05-1.64.16l-1.52.24v17.43h-6.64v-23.03c2.08-.37,3.95-.69,5.62-.94s3.09-.38,4.26-.38,2.44.13,3.66.38c1.21.25,2.14.65,2.78,1.18,1.01-.4,2.23-.76,3.64-1.08,1.41-.32,2.69-.48,3.84-.48,1.41,0,2.75.14,4.02.42,1.27.28,2.37.79,3.32,1.54s1.69,1.75,2.22,3.02c.53,1.27.8,2.86.8,4.78v14.59h-6.64v-13.03Z"/>
        <path class="cls-2" d="M140.54,124.73c.56,0,1.15-.05,1.78-.16.63-.11,1.23-.24,1.8-.4.57-.16,1.09-.35,1.56-.58.47-.23,1.01-.63,1.62-1.22l3,6.08c-1.52.85-3.09,1.53-4.7,2.04-1.61.51-3.55.76-5.82.76-1.84,0-3.54-.31-5.12-.94-1.57-.63-2.94-1.49-4.1-2.6-1.16-1.11-2.06-2.42-2.7-3.94s-.96-3.16-.96-4.92.33-3.48.98-5c.65-1.52,1.55-2.83,2.68-3.94,1.13-1.11,2.45-1.96,3.96-2.58,1.51-.61,3.13-.92,4.86-.92s3.48.32,5,.96c1.52.64,2.82,1.58,3.92,2.82,1.09,1.24,1.93,2.75,2.5,4.52.57,1.77.82,3.94.74,6.5h-17.67c.21.99.87,1.82,1.96,2.5,1.09.68,2.46,1.02,4.12,1.02h.6ZM142.82,113.35c-.93-.63-2.11-.94-3.52-.94s-2.59.36-3.54,1.08c-.95.72-1.51,1.4-1.7,2.04h10.44c-.19-.83-.75-1.55-1.68-2.18Z"/>
        <path class="cls-2" d="M170.12,93.85h6.64v36.11c-3.09.85-6.28,1.28-9.56,1.28-2.13,0-4.04-.31-5.74-.94-1.69-.63-3.13-1.49-4.32-2.6-1.19-1.11-2.09-2.41-2.7-3.92-.61-1.51-.92-3.14-.92-4.9s.31-3.39.94-4.9c.63-1.51,1.53-2.82,2.7-3.96,1.17-1.13,2.57-2.02,4.2-2.66,1.63-.64,3.42-.96,5.4-.96.53,0,1.13.03,1.78.08s1.18.11,1.58.16v-12.8ZM162.25,114.39c-1.2.97-1.8,2.47-1.8,4.5s.59,3.51,1.78,4.44c1.19.93,2.83,1.4,4.94,1.4.99,0,1.97-.11,2.96-.32v-11.12c-.4-.11-.87-.19-1.42-.26-.55-.07-1.06-.1-1.54-.1-2.08,0-3.72.49-4.92,1.46Z"/>
        <path class="cls-2" d="M194.95,97.3h21.75v6.4h-14.95v6.68h13.55v6.48h-13.55v7.52h15.03v6.4h-21.83v-33.46Z"/>
        <path class="cls-2" d="M221.58,130.77v-33.46h6.64v33.46h-6.64Z"/>
        <path class="cls-2" d="M233.65,130.77v-33.46h6.64v33.46h-6.64Z"/>
        <path class="cls-2" d="M255.68,131.25c-1.44,0-2.83-.14-4.18-.42-1.35-.28-2.53-.73-3.56-1.34-1.03-.61-1.86-1.43-2.5-2.46-.64-1.03-.96-2.28-.96-3.78,0-1.33.28-2.52.84-3.56.56-1.04,1.33-1.9,2.32-2.58.99-.68,2.15-1.19,3.48-1.52,1.33-.33,2.78-.5,4.36-.5.61,0,1.29.02,2.04.06.75.04,1.44.11,2.08.22-.16-.91-.65-1.55-1.48-1.94-.83-.39-1.97-.58-3.44-.58-.56,0-1.17.05-1.84.16-.67.11-1.35.25-2.04.42-.69.17-1.37.38-2.02.62-.65.24-1.54.63-2.66,1.16l.88-6.96c1.12-.53,2.4-.97,3.84-1.32,1.44-.35,2.97-.52,4.6-.52,1.49,0,2.88.17,4.16.5s2.4.87,3.36,1.62c.96.75,1.71,1.73,2.24,2.94s.8,2.67.8,4.38v13.47c-1.68.67-3.39,1.15-5.14,1.46-1.75.31-3.47.46-5.18.46ZM259.36,120.89c-.24-.05-.7-.13-1.38-.22s-1.31-.14-1.9-.14c-.69,0-1.33.05-1.92.14s-1.09.23-1.52.42c-.43.19-.75.43-.96.72-.21.29-.32.65-.32,1.08,0,.8.41,1.38,1.22,1.74.81.36,1.87.54,3.18.54.67,0,1.35-.05,2.04-.16s1.21-.21,1.56-.32v-3.8Z"/>
        <path class="cls-2" d="M277.63,106.66c.4-.05.92-.11,1.56-.16s1.24-.08,1.8-.08c1.97,0,3.77.32,5.4.96,1.63.64,3.02,1.53,4.18,2.66s2.05,2.45,2.68,3.96c.63,1.51.94,3.14.94,4.9s-.31,3.39-.92,4.88c-.61,1.49-1.51,2.8-2.68,3.92-1.17,1.12-2.61,1.99-4.3,2.62-1.69.63-3.61.94-5.74.94-3.31,0-6.49-.43-9.56-1.28v-32.66h6.64v9.36ZM277.63,124.41c.99.21,1.97.32,2.96.32,2.1,0,3.75-.47,4.94-1.4,1.19-.93,1.78-2.41,1.78-4.44s-.6-3.52-1.8-4.5c-1.2-.97-2.84-1.46-4.92-1.46-.51,0-1.03.03-1.56.1-.53.07-1,.15-1.4.26v11.12Z"/>
        <path class="cls-2" d="M314.11,130.29c-1.53.64-3.21.96-5.02.96s-3.49-.32-5.02-.96c-1.53-.64-2.87-1.51-4.02-2.6-1.15-1.09-2.05-2.4-2.7-3.92-.65-1.52-.98-3.16-.98-4.92s.33-3.38.98-4.88c.65-1.49,1.55-2.81,2.7-3.94,1.15-1.13,2.49-2.02,4.02-2.66,1.53-.64,3.2-.96,5.02-.96s3.49.32,5.02.96,2.87,1.53,4.02,2.66c1.15,1.13,2.05,2.45,2.7,3.94.65,1.49.98,3.12.98,4.88s-.33,3.4-.98,4.92c-.65,1.52-1.55,2.83-2.7,3.92s-2.49,1.96-4.02,2.6ZM306.67,124.27c.71.31,1.51.46,2.42.46s1.71-.15,2.42-.46c.71-.31,1.31-.72,1.82-1.24s.89-1.14,1.16-1.86c.27-.72.4-1.49.4-2.32s-.13-1.6-.4-2.32c-.27-.72-.65-1.34-1.16-1.86s-1.11-.94-1.82-1.26c-.71-.32-1.51-.48-2.42-.48s-1.71.16-2.42.48c-.71.32-1.31.74-1.82,1.26-.51.52-.89,1.14-1.16,1.86-.27.72-.4,1.49-.4,2.32s.13,1.6.4,2.32c.27.72.65,1.34,1.16,1.86.51.52,1.11.93,1.82,1.24Z"/>
        <path class="cls-2" d="M338.92,107.22h6.64v22.23c-1.04.35-1.94.63-2.7.84-.76.21-1.53.39-2.3.54-.77.15-1.58.25-2.42.32s-1.75.1-2.74.1c-1.49,0-2.89-.16-4.18-.48s-2.43-.87-3.42-1.64c-.99-.77-1.75-1.78-2.3-3.02-.55-1.24-.82-2.78-.82-4.62v-14.27h6.64v12.67c0,1.92.3,3.21.9,3.86.6.65,1.61.98,3.02.98.59,0,1.21-.04,1.88-.12.67-.08,1.27-.19,1.8-.32v-17.07Z"/>
        <path class="cls-2" d="M365.66,93.85h6.64v36.11c-3.09.85-6.28,1.28-9.56,1.28-2.13,0-4.04-.31-5.74-.94-1.69-.63-3.13-1.49-4.32-2.6-1.19-1.11-2.09-2.41-2.7-3.92-.61-1.51-.92-3.14-.92-4.9s.31-3.39.94-4.9c.63-1.51,1.53-2.82,2.7-3.96,1.17-1.13,2.57-2.02,4.2-2.66,1.63-.64,3.42-.96,5.4-.96.53,0,1.13.03,1.78.08s1.18.11,1.58.16v-12.8ZM357.79,114.39c-1.2.97-1.8,2.47-1.8,4.5s.59,3.51,1.78,4.44c1.19.93,2.83,1.4,4.94,1.4.99,0,1.97-.11,2.96-.32v-11.12c-.4-.11-.87-.19-1.42-.26-.55-.07-1.06-.1-1.54-.1-2.08,0-3.72.49-4.92,1.46Z"/>
        <path class="cls-2" d="M377.38,131.53c1.15.51,2.05.85,2.72,1.04.67.19,1.35.36,2.06.52.71.16,1.39.28,2.06.36.67.08,1.27.12,1.8.12.83,0,1.57-.07,2.24-.2s1.23-.34,1.7-.62.94-.81,1.42-1.58l.24-.72c-1.31.27-2.71.4-4.2.4s-2.83-.14-4.1-.42c-1.27-.28-2.37-.79-3.3-1.54s-1.65-1.75-2.16-3.02c-.51-1.27-.76-2.86-.76-4.78v-13.91h6.68v12.31c0,.99.08,1.79.24,2.42.16.63.39,1.11.68,1.46.29.35.69.59,1.18.74.49.15,1.1.22,1.82.22.59,0,1.21-.04,1.86-.12.65-.08,1.26-.2,1.82-.36v-16.67h6.64v21.35c0,2.05-.2,3.79-.6,5.22-.4,1.42-1.09,2.59-2.08,3.5-.99.91-2.25,1.55-3.8,1.94s-3.46.58-5.76.58c-.48,0-1.01-.03-1.58-.08-.57-.05-1.15-.13-1.74-.22-.59-.09-1.17-.2-1.74-.32-.57-.12-1.19-.29-1.86-.5l-1.48-7.12Z"/>
      </g>
      <g>
        <g>
          <path class="cls-2" d="M21.01,64.4c-1.11-.96-2.46-1.43-4.05-1.43s-2.96.47-4.07,1.43c-1.09.96-1.64,2.23-1.64,3.79,0,1.73.59,3.03,1.74,3.94,1.16.9,2.49,1.35,3.97,1.35s2.8-.46,3.96-1.35c1.17-.91,1.74-2.21,1.74-3.94,0-1.56-.54-2.83-1.64-3.79ZM21.01,51.65c-1.11-.96-2.46-1.43-4.05-1.43s-2.96.47-4.07,1.43c-1.09.98-1.64,2.23-1.64,3.79,0,1.73.59,3.04,1.74,3.94s2.49,1.35,3.97,1.35,2.8-.46,3.96-1.35c1.17-.9,1.74-2.21,1.74-3.94,0-1.56-.54-2.82-1.64-3.79ZM43.88,43.66c-2.41,0-4.64.28-6.67.81-2.05.54-3.81,1.4-5.29,2.56-1.92,1.53-3.32,3.4-4.18,5.62-.86,2.23-1.29,4.82-1.29,7.8v16.16h-10.94c-1.89,0-3.66-.21-5.35-.63-1.68-.42-3.71-1.32-6.12-2.67l-4.04,8.82c1.81,1.01,3.32,1.77,4.51,2.29,1.2.52,2.47.93,3.83,1.25,1.33.33,2.8.55,4.35.7,1.56.13,3.42.21,5.53.21h18.21v-26.69c0-.96.18-1.9.54-2.82.36-.93.83-1.63,1.42-2.12.59-.47,1.25-.81,2.02-1.01.75-.21,1.61-.31,2.57-.31h3.08v25.42h9.98v-35.4h-12.14Z"/>
          <path class="cls-2" d="M90.3,53.92c-.54-2.18-1.51-4.02-2.91-5.5-1.61-1.68-3.48-2.9-5.62-3.63-2.15-.75-4.62-1.12-7.42-1.12h-3.55v9.98h4.38c.98,0,1.86.18,2.65.55.8.36,1.42.83,1.86,1.43.49.6.85,1.32,1.09,2.13.24.83.36,1.79.36,2.91v8.41h-20.98v9.98h30.96v-18.03c0-2.56-.28-4.93-.81-7.11Z"/>
          <path class="cls-2" d="M127.53,69.09l.07-25.42h-10.27c-3.09,0-5.94.41-8.55,1.2-2.6.8-4.85,1.97-6.75,3.48-1.9,1.53-3.4,3.39-4.48,5.57-1.09,2.18-1.63,4.66-1.63,7.42,0,3.13.57,5.83,1.69,8.07,1.11,2.28,2.65,4.12,4.59,5.53,1.94,1.43,4.22,2.47,6.79,3.13,2.59.67,5.36.99,8.33.99h.05c-.03.36-.21.8-.5,1.32-.31.52-.72.93-1.24,1.2s-1.19.47-2,.57c-.83.1-1.81.15-2.91.15-1.37,0-2.73-.11-4.1-.36-1.35-.23-3.21-.72-5.52-1.43l.72,10.16,3.01.83c.72.16,1.42.31,2.1.42.68.13,1.37.21,2.07.28.7.07,1.48.08,2.31.08,2.77,0,5.14-.34,7.13-1.01,1.99-.68,3.61-1.64,4.9-2.9,1.29-1.24,2.25-2.7,2.88-4.41.63-1.71,1.03-3.34,1.14-4.9h5.78v-9.98h-5.6ZM117.61,69.09h-2.77c-1.29,0-2.47-.16-3.56-.5-1.11-.34-2.05-.83-2.83-1.48-.78-.63-1.4-1.43-1.86-2.39-.47-.96-.7-2.08-.7-3.37,0-1.16.24-2.21.72-3.16.49-.94,1.14-1.74,1.95-2.41.83-.65,1.79-1.17,2.9-1.56,1.09-.37,2.23-.57,3.39-.57h2.77v15.45Z"/>
          <path class="cls-2" d="M146.91,82.79c-1.11-.96-2.46-1.45-4.05-1.45s-2.96.49-4.05,1.45c-1.11.96-1.66,2.23-1.66,3.79,0,1.71.59,3.03,1.74,3.92,1.16.91,2.49,1.37,3.97,1.37s2.8-.46,3.97-1.37c1.16-.9,1.74-2.21,1.74-3.92,0-1.56-.55-2.83-1.66-3.79ZM147.84,69.09v-25.42h-9.98v25.42h-7.44v9.98h23.84v-9.98h-6.43Z"/>
          <path class="cls-2" d="M167.44,69.09V28.77h-9.98v40.32h-5.89v9.98h23.57v-9.98h-7.7Z"/>
          <path class="cls-2" d="M178.24,28.77v40.32h-5.88v9.98h15.85v-40.32h3.91v-9.98h-13.88Z"/>
          <path class="cls-2" d="M200.79,28.77v50.29h9.98V28.77h-9.98Z"/>
          <path class="cls-2" d="M264.79,69.09v-8.06c0-2.56-.26-4.93-.81-7.11-.54-2.18-1.51-4.02-2.91-5.5-1.6-1.68-3.47-2.9-5.62-3.63-2.15-.75-4.62-1.12-7.42-1.12h-3.55v9.98h4.39c.96,0,1.84.18,2.64.55.8.36,1.43.83,1.87,1.43.47.6.83,1.32,1.07,2.13.24.83.36,1.79.36,2.91v8.41h-20.96v9.98h37.44v-9.98h-6.49Z"/>
          <path class="cls-2" d="M358.91,69.09c-2.51,3.16-6.25,6.64-11.85,9.98h40.43v-9.98h-28.58ZM279.3,69.09h-16.75v9.98h26.73c-3.35-2.64-7.02-6.01-9.98-9.98Z"/>
          <path class="cls-2" d="M402.84,53.56c-1.04-2.43-2.41-4.48-4.09-6.17-1.53-1.56-3.35-2.77-5.47-3.6-2.13-.85-4.48-1.27-7.03-1.27s-5.03.36-7.24,1.06c-2.23.7-4.56,1.76-7,3.16l4.2,8.77c1.97-1.29,3.58-2.12,4.83-2.47,1.27-.36,2.65-.54,4.18-.54,2.8,0,4.98.7,6.54,2.1.96.81,1.66,1.82,2.08,3.08.42,1.24.62,2.44.62,3.6,0,1.25-.08,2.64-.26,4.18-.18,1.55-.37,2.75-.57,3.63h-25.13v9.98h32.81c.36-1.24.73-2.47,1.09-3.69.36-1.22.68-2.56.96-4.02.28-1.46.52-2.99.72-4.57.2-1.58.31-3.19.31-4.83,0-3.17-.52-5.96-1.56-8.38Z"/>
          <path class="cls-2" d="M414.32,36.03v43.03h9.98v-43.03h-9.98ZM418.58,27.03c0-.24.16-.55.5-.91.34-.36.99-.54,1.95-.54h3.3v-4.26h-3.78c-2.57,0-4.61.63-6.1,1.89-1.5,1.27-2.25,3.39-2.25,6.35v3.55h14.06v-6.07h-7.7Z"/>
        </g>
        <g>
          <path class="cls-2" d="M284.57,67.94s23.32,11.61,46.2-2.31c11.36-6.92,19.51-18.18,22.61-31.12,1.23-5.14,1.88-11.15,1.08-17.62l-8.12,3.84.99-20.73,16.89,12.62-7.46,3.4s14.58,18.34,4.95,40.98c-7.34,17.26-24.47,28.61-43.22,28.12-10.58-.27-22.82-4.3-33.91-17.17Z"/>
          <path class="cls-1" d="M348.41,36.54c-2.21,5.69-5.16,10.32-8.46,14.11-1.53,1.74-3.13,3.31-4.76,4.71-1.49,1.27-3.01,2.41-4.53,3.42-12.44,8.32-28.03,10.23-42.43,6.13-12.98-3.7-18.25-10.5-18.57-10.92,6.24,5.25,10.18,4.92,10.18,4.92-11.19-24.79,2.96-42.9,2.96-42.9-.03.48-.06.95-.08,1.42-.62,18.25,12.56,34.31,30.56,37.48,5.91,1.04,11.16.21,15.68-1.55,4.35-1.68,8.03-4.25,10.97-6.87,5.35-4.74,8.28-9.66,8.46-9.95Z"/>
          <rect class="cls-1" x="298.32" y="19.38" width="10.97" height="35.98"/>
          <rect class="cls-1" x="313.57" y="9.65" width="10.97" height="45.71"/>
          <path class="cls-1" d="M339.95.33v50.32c-1.53,1.74-3.13,3.31-4.76,4.71h-6.21V.33h10.97Z"/>
        </g>
      </g>
    </g>
  </g>
</svg>